Coordinates
version=1
nRows=21
nColumns=38
inDegrees=no

Units are S.I. units (second, meters, Newtons, ...)
If the header above contains a line with 'inDegrees', this indicates whether rotational values are in degrees (yes) or radians (no).

endheader
time	pelvis_tilt	pelvis_list	pelvis_rotation	pelvis_tx	pelvis_ty	pelvis_tz	hip_flexion_r	hip_adduction_r	hip_rotation_r	knee_angle_r	ankle_angle_r	subtalar_angle_r	mtp_angle_r	hip_flexion_l	hip_adduction_l	hip_rotation_l	knee_angle_l	ankle_angle_l	subtalar_angle_l	mtp_angle_l	lumbar_extension	lumbar_bending	lumbar_rotation	arm_flex_r	arm_add_r	arm_rot_r	elbow_flex_r	pro_sup_r	wrist_flex_r	wrist_dev_r	arm_flex_l	arm_add_l	arm_rot_l	elbow_flex_l	pro_sup_l	wrist_flex_l	wrist_dev_l
1.41	0.088928	-0.0382647	0.0112358	0.720318	1.02401	-0.309409	0.231075	0.0829682	-0.079016	-0.215572	0.080342	-0.0146385	-0.0160191	-0.314467	0.00534961	0.0290266	-0.51768	-0.189706	-0.0220178	-0.0760301	-0.348392	0.0285438	-0.109022	-0.663786	-0.113641	-0.245285	1.66678	1.37957	-0.0176126	-0.0778727	0.027773	-0.3344	0.13799	1.94088	1.80714	0.0880775	-0.0808981
1.42	0.104055	-0.0359658	0.0115573	0.719995	1.02173	-0.308794	0.222468	0.0833813	-0.0779052	-0.261492	0.0657514	-0.0146385	-0.0160191	-0.306098	-0.000202012	0.014713	-0.59509	-0.234325	-0.0220178	-0.0760301	-0.366276	0.0280275	-0.103557	-0.657224	-0.111127	-0.25017	1.67723	1.37906	-0.0176126	-0.0778727	0.0293634	-0.338057	0.150935	1.9417	1.79736	0.0880775	-0.0808981
1.43	0.11878	-0.0365733	0.0111985	0.719419	1.01858	-0.308062	0.214734	0.0870232	-0.0754685	-0.310654	0.0609868	-0.0146385	-0.0160191	-0.294754	-0.00888386	0.000475468	-0.673879	-0.267388	-0.0220178	-0.0760301	-0.384148	0.0297882	-0.095961	-0.647028	-0.111984	-0.252815	1.68497	1.37756	-0.0176126	-0.0778727	0.0297078	-0.339605	0.161294	1.93733	1.78989	0.0880775	-0.0808981
1.44	0.133071	-0.040045	0.0101804	0.718603	1.0147	-0.307228	0.207847	0.0938305	-0.0718024	-0.362871	0.0659512	-0.0146385	-0.0160191	-0.280419	-0.0206105	-0.0135511	-0.753936	-0.288883	-0.0220178	-0.0760301	-0.401959	0.0338015	-0.0862773	-0.633185	-0.116207	-0.253197	1.68997	1.37507	-0.0176126	-0.0778727	0.0288003	-0.339039	0.169049	1.9277	1.78479	0.0880775	-0.0808981
1.45	0.146861	-0.0462392	0.00858002	0.717586	1.01034	-0.306311	0.201684	0.10357	-0.0672087	-0.41753	0.0802008	-0.0146385	-0.0160191	-0.263046	-0.0350892	-0.0269656	-0.834909	-0.298911	-0.0220178	-0.0760301	-0.419564	0.039963	-0.0746585	-0.615676	-0.123763	-0.25126	1.69213	1.37162	-0.0176126	-0.0778727	0.026627	-0.33635	0.174158	1.91264	1.78226	0.0880775	-0.0808981
1.46	0.159997	-0.0548428	0.00656376	0.716399	1.00579	-0.305347	0.195925	0.115738	-0.0622356	-0.473421	0.102669	-0.0146385	-0.0160191	-0.242584	-0.0517225	-0.0390668	-0.916116	-0.297933	-0.0220178	-0.0760301	-0.436731	0.0480275	-0.0614167	-0.594502	-0.134546	-0.24694	1.69135	1.36731	-0.0176126	-0.0778727	0.0231722	-0.331544	0.176577	1.89189	1.78261	0.0880775	-0.0808981
1.47	0.172283	-0.0652903	0.00439133	0.715047	1.00126	-0.304397	0.190008	0.129523	-0.0576026	-0.528742	0.131577	-0.0146385	-0.0160191	-0.219007	-0.0695913	-0.0489545	-0.996518	-0.287003	-0.0220178	-0.0760301	-0.453164	0.057575	-0.0470358	-0.569748	-0.148318	-0.240229	1.68755	1.36236	-0.0176126	-0.0778727	0.0184292	-0.324678	0.176296	1.86514	1.78617	0.0880775	-0.0808981
1.48	0.183527	-0.0767722	0.00238888	0.713531	0.996853	-0.30354	0.183182	0.143851	-0.054013	-0.581317	0.164638	-0.0146385	-0.0160191	-0.19236	-0.0875281	-0.0557411	-1.07476	-0.267845	-0.0220178	-0.0760301	-0.468543	0.0679962	-0.0321273	-0.541653	-0.164667	-0.231244	1.68082	1.35711	-0.0176126	-0.0778727	0.0124074	-0.315898	0.173383	1.83222	1.79313	0.0880775	-0.0808981
1.49	0.193538	-0.0883027	0.000884388	0.711874	0.992664	-0.302845	0.174618	0.157543	-0.051923	-0.628967	0.199482	-0.0146385	-0.0160191	-0.162825	-0.104272	-0.0588009	-1.14929	-0.242706	-0.0220178	-0.0760301	-0.482603	0.078528	-0.0173281	-0.510674	-0.182989	-0.220298	1.6715	1.35201	-0.0176126	-0.0778727	0.00512127	-0.305471	0.168007	1.79327	1.80341	0.0880775	-0.0808981
1.5	0.202247	-0.0988796	0.000112005	0.710132	0.988805	-0.302344	0.163575	0.169506	-0.0513688	-0.669858	0.234078	-0.0146385	-0.0160191	-0.130736	-0.118658	-0.0579689	-1.21849	-0.21402	-0.0220178	-0.0760301	-0.495131	0.0883208	-0.00317185	-0.477514	-0.20252	-0.207929	1.66031	1.34755	-0.0176126	-0.0778727	-0.00344753	-0.293807	0.160424	1.74889	1.81658	0.0880775	-0.0808981
1.51	0.209655	-0.107647	0.000130509	0.708371	0.985417	-0.302029	0.14952	0.178916	-0.051944	-0.702716	0.26696	-0.0146385	-0.0160191	-0.0965736	-0.1298	-0.0536224	-1.28082	-0.18404	-0.0220178	-0.0760301	-0.505977	0.0965445	0.0100228	-0.443108	-0.222413	-0.194876	1.64827	1.3441	-0.0176126	-0.0778727	-0.0134112	-0.281441	0.150934	1.70032	1.8318	0.0880775	-0.0808981
1.52	0.215772	-0.113977	0.000771889	0.70666	0.982629	-0.301855	0.132196	0.185324	-0.0528738	-0.726876	0.297221	-0.0146385	-0.0160191	-0.0609176	-0.137183	-0.0466338	-1.33493	-0.154526	-0.0220178	-0.0760301	-0.515022	0.102484	0.0221999	-0.408536	-0.241839	-0.182004	1.63664	1.34183	-0.0176126	-0.0778727	-0.0250459	-0.269006	0.139824	1.64948	1.84791	0.0880775	-0.0808981
1.53	0.22054	-0.117542	0.00166331	0.705061	0.980539	-0.301764	0.111654	0.188636	-0.0532207	-0.742201	0.324346	-0.0146385	-0.0160191	-0.024349	-0.140673	-0.0381988	-1.37978	-0.126614	-0.0220178	-0.0760301	-0.522111	0.105609	0.0335257	-0.374923	-0.260088	-0.170203	1.62675	1.34066	-0.0176126	-0.0778727	-0.0388252	-0.257176	0.12732	1.59887	1.86351	0.0880775	-0.0808981
1.54	0.22379	-0.118303	0.00231874	0.703635	0.979201	-0.301692	0.0882608	0.189023	-0.0521305	-0.748938	0.348023	-0.0146385	-0.0160191	0.0126563	-0.140448	-0.0296049	-1.41462	-0.100825	-0.0220178	-0.0760301	-0.526987	0.105613	0.0442877	-0.343326	-0.276641	-0.160289	1.61981	1.34041	-0.0176126	-0.0778727	-0.0553851	-0.246602	0.113588	1.55132	1.87709	0.0880775	-0.0808981
1.55	0.22523	-0.116446	0.00226686	0.702431	0.97863	-0.301589	0.0626508	0.186798	-0.0490406	-0.747587	0.368002	-0.0146385	-0.0160191	0.0497866	-0.136908	-0.0220147	-1.439	-0.077194	-0.0220178	-0.0760301	-0.529282	0.102432	0.0547743	-0.314649	-0.291202	-0.152915	1.61675	1.34085	-0.0176126	-0.0778727	-0.0754138	-0.237847	0.0987651	1.50966	1.88709	0.0880775	-0.0808981
1.56	0.224495	-0.112288	0.00117581	0.70149	0.978804	-0.301427	0.0356283	0.182305	-0.0438105	-0.73881	0.384014	-0.0146385	-0.0160191	0.0868777	-0.130574	-0.0163148	-1.45274	-0.0554415	-0.0220178	-0.0760301	-0.52858	0.0962332	0.0651697	-0.289586	-0.303675	-0.148518	1.61813	1.3418	-0.0176126	-0.0778727	-0.0994955	-0.231326	0.0830054	1.47629	1.89218	0.0880775	-0.0808981
1.57	0.221265	-0.106164	-0.00106752	0.70084	0.979672	-0.301201	0.0080143	0.175821	-0.0367179	-0.723366	0.395733	-0.0146385	-0.0160191	0.123803	-0.121983	-0.0130644	-1.45584	-0.035151	-0.0220178	-0.0760301	-0.524543	0.0873296	0.075486	-0.268588	-0.314128	-0.14727	1.6241	1.34308	-0.0176126	-0.0778727	-0.127962	-0.227271	0.0665064	1.4529	1.89146	0.0880775	-0.0808981
1.58	0.215389	-0.0983559	-0.00434042	0.700497	0.981168	-0.300933	-0.0194972	0.167497	-0.0283989	-0.70209	0.402756	-0.0146385	-0.0160191	0.160348	-0.111601	-0.0124988	-1.4484	-0.0159419	-0.0220178	-0.0760301	-0.517027	0.0761084	0.0855448	-0.25185	-0.322735	-0.149067	1.63446	1.34453	-0.0176126	-0.0778727	-0.160798	-0.225706	0.0495104	1.4402	1.88471	0.0880775	-0.0808981
1.59	0.206955	-0.089051	-0.00832814	0.700458	0.983229	-0.300665	-0.0464378	0.157355	-0.019744	-0.675874	0.404586	-0.0146385	-0.0160191	0.196107	-0.0997699	-0.0145533	-1.43051	0.0023709	-0.0220178	-0.0760301	-0.506162	0.0629746	0.0950147	-0.239335	-0.329749	-0.153549	1.64871	1.34596	-0.0176126	-0.0778727	-0.197627	-0.226438	0.0322709	1.43797	1.87244	0.0880775	-0.0808981
1.6	0.196307	-0.0783735	-0.0126128	0.70071	0.985795	-0.300449	-0.0725907	0.145341	-0.0117567	-0.645658	0.400649	-0.0146385	-0.0160191	0.230447	-0.0866861	-0.0188837	-1.40225	0.0196723	-0.0220178	-0.0760301	-0.492374	0.0483289	0.103491	-0.230784	-0.335469	-0.160141	1.66615	1.34718	-0.0176126	-0.0778727	-0.23777	-0.229057	0.0149881	1.44511	1.85591	0.0880775	-0.0808981
1.61	0.183989	-0.0664687	-0.0167809	0.701235	0.988814	-0.300342	-0.0979493	0.131418	-0.00539295	-0.612403	0.390348	-0.0146385	-0.0160191	0.262552	-0.0724426	-0.0248885	-1.36364	0.0355424	-0.0220178	-0.0760301	-0.476333	0.0325742	0.110597	-0.225755	-0.340233	-0.168119	1.68597	1.348	-0.0176126	-0.0778727	-0.280352	-0.232963	-0.00225484	1.45992	1.83687	0.0880775	-0.0808981
